<?xml version="1.0" encoding="UTF-8" standalone="no"?>
<!-- Created with Inkscape (http://www.inkscape.org/) -->

<svg
   width="286"
   height="180"
   viewBox="0 0 286.00001 180"
   version="1.1"
   id="svg5"
   inkscape:version="1.1.1 (3bf5ae0d25, 2021-09-20)"
   sodipodi:docname="scratch.svg"
   inkscape:export-filename="C:\Users\SAKAMOTO\scratch.png"
   inkscape:export-xdpi="96"
   inkscape:export-ydpi="96"
   xmlns:inkscape="http://www.inkscape.org/namespaces/inkscape"
   xmlns:sodipodi="http://sodipodi.sourceforge.net/DTD/sodipodi-0.dtd"
   xmlns="http://www.w3.org/2000/svg"
   xmlns:svg="http://www.w3.org/2000/svg">
  <sodipodi:namedview
     id="namedview7"
     pagecolor="#ffffff"
     bordercolor="#666666"
     borderopacity="1.0"
     inkscape:pageshadow="2"
     inkscape:pageopacity="0.0"
     inkscape:pagecheckerboard="0"
     inkscape:document-units="mm"
     showgrid="false"
     inkscape:zoom="1.482455"
     inkscape:cx="43.846188"
     inkscape:cy="112.98825"
     inkscape:window-width="1920"
     inkscape:window-height="1017"
     inkscape:window-x="-8"
     inkscape:window-y="-8"
     inkscape:window-maximized="1"
     inkscape:current-layer="layer1"
     units="px" />
  <defs
     id="defs2" />
  <g
     inkscape:label="Layer 1"
     inkscape:groupmode="layer"
     id="layer1">
    <g
       id="g32998"
       transform="translate(-431.71632,-289.72213)">
      <rect
         style="fill:#ffffff;fill-rule:evenodd;stroke:none"
         id="rect31"
         width="286"
         height="180"
         x="431.19324"
         y="290.00607" />
      <rect
         style="fill:#c87137;stroke:none;stroke-width:0.997972"
         id="rect10244"
         width="286"
         height="41.325253"
         x="431.19324"
         y="428.68082" />
      <text
         xml:space="preserve"
         style="font-style:normal;font-variant:normal;font-weight:normal;font-stretch:normal;font-size:40px;line-height:1.25;font-family:monospace;-inkscape-font-specification:monospace;fill:#ff6600;fill-opacity:1;stroke:none"
         x="508.85928"
         y="335.92905"
         id="text1661"><tspan
           sodipodi:role="line"
           id="tspan1659"
           x="508.85928"
           y="335.92905">~2017</tspan></text>
      <g
         id="g9853"
         transform="translate(430.70534,328.60436)">
    <title
   id="title9812">costume1.1</title>

    <desc
   id="desc9814">Created with Sketch.</desc>

    <g
   id="Page-1"
   stroke="none"
   fill-rule="evenodd">
      <g
   id="costume1">
        <g
   id="costume1.1">
          <g
   id="tail">
            <path
   d="M 21.9,73.8 C 19.5,73.3 16.6,72.5 14.2,70.3 8.7,65.4 7,57.3 3.2,59.4 c -3.9,2.1 -3.8,15.2 8.4,19.2 4.2,1.4 8,1.4 11.1,1.3 0.8,0 7.7,-0.7 10.1,-4.1 2.4,-3.4 0.7,-4.3 -0.1,-4.7 -0.9,-0.5 -7.4,3.3 -10.8,2.7 z"
   stroke="#001026"
   stroke-width="1.2"
   fill="#ffab19"
   stroke-linecap="round"
   stroke-linejoin="round"
   id="path9816" />

            <path
   d="m 3.8,59.6 c -2,0.6 -3,4.8 -2,8.3 1,3.5 2.6,5.3 3.9,6.6 -0.2,-0.7 -0.6,-2.9 1.1,-4.2 2.1,-1.7 5.8,-0.8 5.8,-0.8 0,0 -3.1,-3.8 -4.7,-6.5 C 6.3,60.7 5.8,59.2 3.8,59.6 Z"
   id="detail"
   fill="#ffffff"
   stroke-width="1" />

          </g>

          <path
   d="m 37.7,81.5 c -1.8,1.2 -8,5.6 -15.9,8.1 l -0.4,0.1 c -0.4,0.1 -0.6,0.6 -0.4,1 1.7,2.4 4.8,7.2 -0.7,8.9 -5.3,1.7 -15.2,-12.4 -11,-16.1 1.9,-1.4 3.6,-0.7 4.5,-0.3 0.5,0.2 1,0.2 1.5,0.1 1.2,-0.4 3.4,-1.2 5.1,-2.1 4.3,-2.2 5.3,-3.1 7.3,-4.6 2,-1.5 6.6,-5.2 10.3,-2 3.2,2.7 1.4,5.7 -0.3,6.9 z"
   id="leg"
   stroke="#001026"
   stroke-width="1.2"
   fill="#ffab19"
   stroke-linecap="round"
   stroke-linejoin="round" />

          <path
   d="m 53.6,60.7 c 0.5,0.4 6.6,7.6 8.6,5.8 2.4,-2.1 5.7,-6.2 9.3,-2.9 3.6,3.3 -3.2,8.9 -6.1,10.4 -6.9,3.1 -12.5,-2.8 -13.7,-4.4 -1.2,-1.6 -3.3,-4.3 -3.3,-6.9 0.1,-2.8 3.5,-3.5 5.2,-2 z"
   id="arm"
   stroke="#001026"
   stroke-width="1.2"
   fill="#ffab19"
   stroke-linecap="round"
   stroke-linejoin="round" />

          <g
   id="body-and-leg">
            <path
   d="m 46.2,76.7 c 1.2,-0.9 2.4,-2.4 4,-4.7 1.3,-1.9 2.7,-5.6 2.7,-5.6 0.9,-2.5 1.5,-7.3 -1.8,-7.2 -2.2,0.1 -4.2,-0.2 -7.6,-0.7 -6,-1.2 -7.1,-2 -9.6,2.1 -2.7,4.8 -9.6,8.3 -1.1,16.6 0,0 4.9,3.8 10.8,9.6 4,3.9 10.3,9.5 12.5,11.4 0.5,0.4 1.1,0.6 1.7,0.7 9.7,0.9 16.9,-0.1 16.9,-4.4 0,-7.2 -14.3,-4.7 -14.3,-4.7 0,0 -4.6,-3.9 -6.7,-5.8 z"
   id="body"
   stroke="#001026"
   stroke-width="1.2"
   fill="#ffab19"
   stroke-linecap="round"
   stroke-linejoin="round" />

            <path
   d="m 50.6,70 c 0,0 1.9,-2.5 -2.4,-5.2 -4.5,-2.9 -6.2,0.3 -8,2.7 -2,3.1 0,4.6 2,6.4 1.6,1.5 3.1,2.7 3.1,2.7 0,0 3.1,-2.1 5.3,-6.6 z"
   id="tummy"
   fill="#ffffff"
   stroke-width="1" />

          </g>

          <path
   d="m 30.2,68.4 c 2.2,2.8 5.6,6.3 1.3,9.2 -5.9,3.3 -10.8,-6.7 -11.8,-10.2 -0.9,-3.1 1.7,-5.1 3.9,-6.8 4.3,-3.1 7.9,-5.9 11.9,-4.4 5,1.8 1.4,5.8 -1.1,7.6 -1.5,1.1 -3,2.3 -4.1,3 -0.3,0.5 -0.4,1.1 -0.1,1.6 z"
   id="path9825"
   stroke="#001026"
   stroke-width="1.2"
   fill="#ffab19"
   stroke-linecap="round"
   stroke-linejoin="round" />

          <g
   id="head">
            <path
   d="M 53.1,9 C 50.8,8.6 48.4,8.4 45.6,8.6 40.9,8.8 36.4,10.5 36.4,10.5 L 24.3,2.6 C 23.9,2.4 23.4,2.7 23.5,3.1 L 25.6,21 C 26.2,20.2 15,33.8 22.1,45.2 29.2,56.6 44.3,61.7 63.1,58 81.9,54.3 86.3,43.5 85.1,37.8 83.9,32.1 76.8,30 76.8,30 c 0,0 -0.1,-4.5 -3.3,-10 -1.9,-3.3 -8.3,-8 -8.3,-8 L 62.6,1.3 C 62.5,0.9 62,0.8 61.7,1 Z"
   stroke="#001026"
   stroke-width="1.2"
   fill="#ffab19"
   id="path9827" />

            <path
   d="m 76.5,30.4 c 0,0 6.9,1.8 8.1,7.5 1.2,5.7 -3.6,16 -22.2,19.6 -24.2,5 -35.7,-9.4 -29,-20 6.7,-10.7 18.2,-1.6 26.6,-2.2 7.2,-0.5 8,-6.8 16.5,-4.9 z"
   id="face"
   fill="#ffffff"
   stroke-width="1" />

            <path
   d="m 45,41.1 c 0,-0.4 0.4,-0.7 0.8,-0.6 1.9,0.7 7.3,2.3 13.3,2.7 5.4,0.3 8.6,0 10.1,-0.3 0.5,-0.1 0.9,0.4 0.7,0.9 C 69,46.5 65.2,54 54.7,53.4 45.6,52.4 44.7,46 45,41.1 Z"
   id="mouth"
   stroke="#001026"
   stroke-width="1.2"
   fill="#ffffff"
   stroke-linecap="round"
   stroke-linejoin="round" />

            <path
   d="m 83,35.4 c 0,0 7.2,-0.1 11.9,-3.9"
   id="whisker"
   stroke="#001026"
   stroke-width="1.2"
   stroke-linecap="round"
   stroke-linejoin="round"
   fill="none" />

            <path
   d="m 83.4,41.3 c 0,0 3.9,1.9 10.2,1.4"
   id="path9832"
   stroke="#001026"
   stroke-width="1.2"
   stroke-linecap="round"
   stroke-linejoin="round"
   fill="none" />

            <path
   d="m 59.6,32.7 c 2.1,0 4.3,0.2 4.4,0.9 0.1,1.4 -1.4,4.2 -3,4.3 -1.8,0.2 -6,-2.3 -6,-3.9 -0.1,-1.2 2.6,-1.3 4.6,-1.3 z"
   id="nose"
   stroke="#001026"
   stroke-width="1.2"
   fill="#001026"
   stroke-linecap="round"
   stroke-linejoin="round" />

            <path
   d="m 14.6,31.2 c 0,0 8.6,2.8 12.1,5.9"
   id="path9835"
   stroke="#001026"
   stroke-width="1.2"
   stroke-linecap="round"
   stroke-linejoin="round"
   fill="none" />

            <path
   d="m 15.3,41.2 c 0,0 7.4,1.1 11.7,-0.6"
   id="path9837"
   stroke="#001026"
   stroke-width="1.2"
   stroke-linecap="round"
   stroke-linejoin="round"
   fill="none" />

            <g
   id="eye">
              <path
   d="m 71.4,21 c 2.9,4.5 3,9.6 0.2,11.4 -2.8,1.8 -7.4,-0.3 -10.4,-4.8 -2.9,-4.5 -3,-9.6 -0.2,-11.4 2.8,-1.9 7.5,0.3 10.4,4.8 z"
   id="pupil"
   stroke="#001026"
   stroke-width="1.2"
   fill="#ffffff"
   stroke-linecap="round"
   stroke-linejoin="round" />

              <path
   d="m 71,26.7 c 0,1.1 -0.8,2 -1.8,2 -1,0 -1.8,-0.9 -1.8,-2 0,-1.1 0.8,-2 1.8,-2 1,0 1.8,0.9 1.8,2"
   id="path9840"
   fill="#001026"
   stroke-width="1" />

            </g>

            <g
   id="g9847">
              <path
   d="m 46.6,23.8 c 3,4.4 2.8,9.8 0.1,11.7 C 43.4,37.4 39,36 36,31.6 32.9,27.2 32.7,21.5 35.8,19.3 c 3.1,-2.3 7.8,0.1 10.8,4.5 z"
   stroke="#001026"
   stroke-width="1.2"
   fill="#ffffff"
   stroke-linecap="round"
   stroke-linejoin="round"
   id="path9843" />

              <path
   d="m 46,29.6 c 0,1.1 -0.8,2 -1.8,2 -1,0 -1.8,-0.9 -1.8,-2 0,-1.1 0.8,-2 1.8,-2 1,0.1 1.8,0.9 1.8,2"
   id="path9845"
   fill="#001026"
   stroke-width="1" />

            </g>

          </g>

        </g>

      </g>

    </g>

  </g>
      <g
         id="g10030"
         transform="translate(624.00534,322.90436)">
    <title
   id="title9989">costume2.1</title>

    <desc
   id="desc9991">Created with Sketch.</desc>

    <g
   id="Page-1-5"
   stroke="none"
   fill-rule="evenodd">
      <g
   id="cotsume2">
        <g
   id="costume2.1">
          <g
   id="tail-2">
            <path
   d="m 12.25,67.3 c -3.1,-7.8 -1.4,-14.8 -5.7,-14.4 -4.4,0.4 -9.5,12.1 0.1,20.7 8.9,7.9 18,5 21.6,2.9 3.5,-2.2 0.8,-3.4 0.2,-4.2 -0.6,-0.8 -11.8,6.3 -16.2,-5 z"
   stroke="#001026"
   stroke-width="1.2"
   fill="#ffab19"
   stroke-linecap="round"
   stroke-linejoin="round"
   id="path9993" />

            <path
   d="m 7.05,53.4 c -2.5,-0.4 -4.7,3.2 -5.2,6.7 -0.2,3.6 0.4,5.7 1.1,7.4 0.1,-0.7 1,-3.1 3.9,-3.6 2.4,-0.4 4,1.6 4,1.6 0,0 -1,-3 -1.5,-7.4 -0.4,-2.7 -0.3,-4.3 -2.3,-4.7 z"
   id="detail-5"
   fill="#ffffff"
   stroke-width="1" />

          </g>

          <path
   d="m 33.15,82.7 c -0.7,0.9 -2.7,4.4 -7.5,7.4 -3.3,2.1 -11.8,-1.4 -11.8,-1.4 0.9,9.2 -6.6,9 -8,6 -1.1,-2.4 -0.9,-12.7 1.3,-13.5 3.4,-1.2 8,0.8 12.1,0.8 1.2,0 2.5,-2.6 5.3,-5.4 2,-2 4.6,-5.7 8.8,-3.1 3.6,2.3 1.7,6.5 -0.2,9.2 z"
   id="leg-6"
   stroke="#001026"
   stroke-width="1.2"
   fill="#ffab19"
   stroke-linecap="round"
   stroke-linejoin="round" />

          <path
   d="m 50.35,61.5 c 0.3,2.2 0.5,10.6 2.9,11.9 2.3,1.2 9.3,-0.8 9.7,4.1 0.4,4.8 -6.1,4.9 -11.5,3.4 -7,-1.9 -10.2,-12.6 -6.2,-19.2 1.5,-2.3 4.8,-2.5 5.1,-0.2 z"
   id="arm-6"
   stroke="#001026"
   stroke-width="1.2"
   fill="#ffab19"
   stroke-linecap="round"
   stroke-linejoin="round" />

          <g
   id="body-and-leg-2">
            <path
   d="m 42.45,77.8 c 1.2,-0.9 3,-3.3 4.6,-5.7 1.3,-1.9 2.7,-5.6 2.7,-5.6 0.9,-2.5 1.5,-7.3 -1.8,-7.2 -2.2,0.1 -4.2,-0.2 -7.6,-0.7 -6,-1.2 -7.2,-2.4 -9.6,2.1 -4.5,8.3 -10.5,14.2 -2.3,19 2,1.2 5.2,3.2 8,5.2 2,1.9 -1,6 -3.1,8.4 -0.9,1.1 -0.9,2.7 0.2,3.8 7.3,7.1 9.5,9.6 12.3,6.5 3.8,-4.2 -2.2,-8.3 -2.2,-8.3 0,0 4.8,-7.5 4.2,-10.8 -0.7,-3.2 -5.4,-6.7 -5.4,-6.7 z"
   id="body-0"
   stroke="#001026"
   stroke-width="1.2"
   fill="#ffab19"
   stroke-linecap="round"
   stroke-linejoin="round" />

            <path
   d="m 46.9784,71.1029 c 0,0 1.9,-2.5 -2.4,-5.2 -4.5,-2.9 -6.2,0.3 -8,2.7 -2,3.1 0,4.6 2,6.4 1.6,1.5 3.1,2.7 3.1,2.7 0,0 3.1,-2.1 5.3,-6.6 z"
   id="tummy-8"
   fill="#ffffff"
   stroke-width="1" />

          </g>

          <path
   d="m 32.55,64.7 c -2.2,1 -6.3,-0.8 -7.4,-0.6 -0.3,0.1 -2.1,5.3 -3.2,8.4 -1.5,4.4 -8.3,3.1 -8.7,-1.5 -0.3,-4.3 3.6,-12.6 4.9,-14.1 2.9,-3.5 12.7592,-0.6917 19.3463,1.0565"
   id="path10002"
   stroke="#001026"
   stroke-width="1.2"
   fill="#ffab19"
   stroke-linecap="round"
   stroke-linejoin="round" />

          <g
   id="head-2">
            <path
   d="M 50.1,9 C 47.8,8.6 45.4,8.4 42.6,8.6 37.9,8.8 33.4,10.5 33.4,10.5 L 21.3,2.6 C 20.9,2.4 20.4,2.7 20.5,3.1 L 22.6,21 C 23.2,20.2 12,33.8 19.1,45.2 26.2,56.6 41.3,61.7 60.1,58 78.9,54.3 83.3,43.5 82.1,37.8 80.9,32.1 73.8,30 73.8,30 c 0,0 -0.1,-4.5 -3.3,-10 -1.9,-3.3 -8.3,-8 -8.3,-8 L 59.6,1.3 C 59.5,0.9 59,0.8 58.7,1 Z"
   stroke="#001026"
   stroke-width="1.2"
   fill="#ffab19"
   id="path10004" />

            <path
   d="m 73.5,30.4 c 0,0 6.9,1.8 8.1,7.5 1.2,5.7 -3.6,16 -22.2,19.6 -24.2,5 -35.7,-9.4 -29,-20 6.7,-10.7 18.2,-1.6 26.6,-2.2 7.2,-0.5 8,-6.8 16.5,-4.9 z"
   id="face-3"
   fill="#ffffff"
   stroke-width="1" />

            <path
   d="m 42,41.1 c 0,-0.4 0.4,-0.7 0.8,-0.6 1.9,0.7 7.3,2.3 13.3,2.7 5.4,0.3 8.6,0 10.1,-0.3 0.5,-0.1 0.9,0.4 0.7,0.9 C 66,46.5 62.2,54 51.7,53.4 42.6,52.4 41.7,46 42,41.1 Z"
   id="mouth-5"
   stroke="#001026"
   stroke-width="1.2"
   fill="#ffffff"
   stroke-linecap="round"
   stroke-linejoin="round" />

            <path
   d="m 80,35.4 c 0,0 7.2,-0.1 11.9,-3.9"
   id="whisker-0"
   stroke="#001026"
   stroke-width="1.2"
   stroke-linecap="round"
   stroke-linejoin="round"
   fill="none" />

            <path
   d="m 80.4,41.3 c 0,0 3.9,1.9 10.2,1.4"
   id="path10009"
   stroke="#001026"
   stroke-width="1.2"
   stroke-linecap="round"
   stroke-linejoin="round"
   fill="none" />

            <path
   d="m 56.6,32.7 c 2.1,0 4.3,0.2 4.4,0.9 0.1,1.4 -1.4,4.2 -3,4.3 -1.8,0.2 -6,-2.3 -6,-3.9 -0.1,-1.2 2.6,-1.3 4.6,-1.3 z"
   id="nose-3"
   stroke="#001026"
   stroke-width="1.2"
   fill="#001026"
   stroke-linecap="round"
   stroke-linejoin="round" />

            <path
   d="m 11.6,31.2 c 0,0 8.6,2.8 12.1,5.9"
   id="path10012"
   stroke="#001026"
   stroke-width="1.2"
   stroke-linecap="round"
   stroke-linejoin="round"
   fill="none" />

            <path
   d="m 12.3,41.2 c 0,0 7.4,1.1 11.7,-0.6"
   id="path10014"
   stroke="#001026"
   stroke-width="1.2"
   stroke-linecap="round"
   stroke-linejoin="round"
   fill="none" />

            <g
   id="eye-7">
              <path
   d="m 68.4,21 c 2.9,4.5 3,9.6 0.2,11.4 -2.8,1.8 -7.4,-0.3 -10.4,-4.8 -2.9,-4.5 -3,-9.6 -0.2,-11.4 2.8,-1.9 7.5,0.3 10.4,4.8 z"
   id="pupil-5"
   stroke="#001026"
   stroke-width="1.2"
   fill="#ffffff"
   stroke-linecap="round"
   stroke-linejoin="round" />

              <path
   d="m 68,26.7 c 0,1.1 -0.8,2 -1.8,2 -1,0 -1.8,-0.9 -1.8,-2 0,-1.1 0.8,-2 1.8,-2 1,0 1.8,0.9 1.8,2"
   id="path10017"
   fill="#001026"
   stroke-width="1" />

            </g>

            <g
   id="g10024">
              <path
   d="m 43.6,23.8 c 3,4.4 2.8,9.8 0.1,11.7 C 40.4,37.4 36,36 33,31.6 29.9,27.2 29.7,21.5 32.8,19.3 c 3.1,-2.3 7.8,0.1 10.8,4.5 z"
   stroke="#001026"
   stroke-width="1.2"
   fill="#ffffff"
   stroke-linecap="round"
   stroke-linejoin="round"
   id="path10020" />

              <path
   d="m 43,29.6 c 0,1.1 -0.8,2 -1.8,2 -1,0 -1.8,-0.9 -1.8,-2 0,-1.1 0.8,-2 1.8,-2 1,0.1 1.8,0.9 1.8,2"
   id="path10022"
   fill="#001026"
   stroke-width="1" />

            </g>

          </g>

        </g>

      </g>

    </g>

  </g>
    </g>
  </g>
</svg>
